<svg version="1.1" id="Layer_1" xmlns="http://www.w3.org/2000/svg" xmlns:xlink="http://www.w3.org/1999/xlink" x="0px" y="0px"
	 width="100%" viewBox="0 0 500 500" enable-background="new 0 0 500 500" xml:space="preserve">
<path fill="#000000" opacity="1.000000" stroke="none" 
	d="
M328.000000,501.000000 
	C218.666687,501.000000 109.833382,501.000000 1.000058,501.000000 
	C1.000039,334.333405 1.000039,167.666794 1.000019,1.000148 
	C167.666565,1.000099 334.333130,1.000099 500.999756,1.000049 
	C500.999847,167.666519 500.999847,334.333038 500.999939,500.999786 
	C443.500000,501.000000 386.000000,501.000000 328.000000,501.000000 
M216.623184,391.667664 
	C216.026184,391.681671 215.429184,391.695679 214.613129,392.607452 
	C214.613129,397.886475 214.613129,403.165497 214.613129,408.279907 
	C218.445175,408.279907 222.057343,408.279907 225.669510,408.279907 
	C225.650375,407.952179 225.631256,407.624481 225.612137,407.296753 
	C222.724854,407.078217 219.837585,406.859680 216.589432,406.613831 
	C216.589432,401.525818 216.589432,396.875122 216.623184,391.667664 
M246.590546,104.679001 
	C257.845459,104.246651 268.908997,105.444221 279.491760,109.396317 
	C314.950592,122.638275 336.745026,153.938629 336.913300,192.031006 
	C337.060516,225.356537 336.947449,258.683228 336.937958,292.009430 
	C336.937592,293.337769 337.344238,295.146393 336.653839,295.900330 
	C334.888550,297.828125 332.756042,300.367065 330.502014,300.670929 
	C327.365723,301.093781 324.994568,298.691986 324.821747,295.075043 
	C324.742310,293.412079 324.773956,291.743591 324.763885,290.077576 
	C324.550598,254.763474 325.366394,219.405624 323.865204,184.146393 
	C322.000946,140.360779 277.964844,108.551048 235.073120,118.502350 
	C200.766113,126.461914 177.399933,155.274887 177.219971,190.486740 
	C177.007919,231.976761 177.163467,273.468689 177.173340,314.959778 
	C177.173660,316.263916 177.325607,317.567963 177.428497,319.219116 
	C185.637817,319.219116 193.641647,319.219116 201.923203,319.219116 
	C201.923203,316.962341 201.922867,315.140747 201.923233,313.319153 
	C201.931763,271.828094 201.785767,230.336227 202.001236,188.846252 
	C202.154770,159.284653 231.545654,136.184341 260.467194,142.508133 
	C283.978973,147.649063 299.868591,166.972107 299.982300,191.123520 
	C300.143158,225.282120 299.987915,259.442078 300.046661,293.601318 
	C300.077942,311.789001 313.604523,325.926666 330.785278,325.490417 
	C350.166199,324.998322 361.609833,308.890778 361.319824,293.913086 
	C360.658630,259.766541 361.228516,225.597717 361.019653,191.439651 
	C360.974121,183.992508 360.326111,176.450516 359.000977,169.124878 
	C344.824249,90.751244 250.069901,53.377583 186.169632,101.006363 
	C157.852417,122.112923 141.534073,150.083878 140.895981,185.902283 
	C140.388550,214.386948 140.805725,242.888153 140.829514,271.382019 
	C140.830841,272.984375 140.987579,274.586639 141.076675,276.277710 
	C149.254669,276.277710 156.980652,276.277710 164.807999,276.277710 
	C164.885910,274.750946 164.996338,273.595367 164.996323,272.439789 
	C164.995758,244.445862 164.977371,216.451950 164.983582,188.458023 
	C164.984131,185.961685 164.913559,183.436432 165.241714,180.973343 
	C170.914093,138.397278 203.027466,107.976646 246.590546,104.679001 
M214.052551,276.500000 
	C214.052551,296.771942 214.052551,317.043915 214.052551,337.561340 
	C222.502533,337.561340 230.388489,337.561340 238.815353,337.561340 
	C238.815353,335.311707 238.815338,333.352509 238.815338,331.393311 
	C238.815369,285.917358 238.814682,240.441437 238.818024,194.965500 
	C238.818161,193.133514 238.768616,191.295532 238.893387,189.470688 
	C239.244751,184.331833 242.476654,180.374329 247.384720,178.944458 
	C255.968048,176.443863 263.062744,182.101379 263.088043,191.736664 
	C263.162323,220.054825 263.117004,248.373276 263.118469,276.691620 
	C263.118561,278.477905 263.118469,280.264160 263.118469,282.353607 
	C271.544037,282.353607 279.441010,282.353607 287.341339,282.353607 
	C287.567047,281.642944 287.838654,281.186646 287.838776,280.730316 
	C287.847321,250.247177 288.348053,219.752197 287.646088,189.284958 
	C287.158813,168.134567 270.035797,153.228119 249.015518,153.929886 
	C229.345825,154.586563 214.075592,170.991257 214.059189,191.544434 
	C214.036865,219.529602 214.052979,247.514816 214.052551,276.500000 
M296.373138,362.169922 
	C291.831909,355.267609 286.463348,350.190125 277.283020,353.616425 
	C277.283020,360.929688 277.283020,368.340973 277.283020,375.640198 
	C280.608673,375.640198 283.658661,375.640198 287.058624,375.640198 
	C287.058624,370.875732 287.058624,366.471375 287.058624,360.949005 
	C291.136047,365.801208 294.388458,369.917633 297.943939,373.753082 
	C299.013184,374.906525 300.871735,375.713104 302.464264,375.911469 
	C305.240723,376.257324 308.091339,376.007721 311.083679,376.007721 
	C311.083679,368.262238 311.083679,360.799011 311.083679,353.276489 
	C307.893219,353.276489 304.848175,353.276489 301.376678,353.276489 
	C301.376678,357.987213 301.376678,362.386444 301.376678,367.985413 
	C299.350891,365.624451 298.105591,364.173096 296.373138,362.169922 
M373.453247,352.947876 
	C368.708038,352.947876 363.962830,352.947876 359.281067,352.947876 
	C359.281067,360.955872 359.281067,368.345490 359.281067,375.422943 
	C367.145447,375.422943 374.806213,376.048950 382.314117,375.246002 
	C389.745453,374.451233 392.095520,371.109100 392.083588,364.494873 
	C392.071564,357.832703 389.659943,355.000092 382.348633,353.575470 
	C379.766296,353.072266 377.072449,353.141327 373.453247,352.947876 
M223.597092,366.851624 
	C226.353378,366.851624 229.109650,366.851624 232.205078,366.851624 
	C232.205078,370.235901 232.205078,372.987305 232.205078,375.674927 
	C235.629379,375.674927 238.679901,375.674927 241.600433,375.674927 
	C241.600433,367.928223 241.600433,360.526978 241.600433,353.144501 
	C238.340851,353.144501 235.398865,353.144501 231.932434,353.144501 
	C231.932434,356.214264 231.932434,359.092865 231.932434,361.808838 
	C227.659424,361.808838 223.925537,361.808838 219.867355,361.808838 
	C219.867355,358.737488 219.867355,355.972687 219.867355,353.293549 
	C216.466843,353.293549 213.422607,353.293549 210.486145,353.293549 
	C210.486145,361.046143 210.486145,368.442291 210.486145,375.814606 
	C213.757355,375.814606 216.699722,375.814606 220.016693,375.814606 
	C220.016693,373.498413 219.753448,371.328674 220.135162,369.278992 
	C220.308640,368.347504 221.759079,367.653809 223.597092,366.851624 
M246.150833,360.577698 
	C246.150833,365.672363 246.150833,370.766998 246.150833,375.840820 
	C255.788269,375.840820 264.743134,375.840820 273.821533,375.840820 
	C273.821533,373.934143 273.821533,372.219055 273.821533,370.136810 
	C268.427765,370.136810 263.292847,370.210083 258.164886,370.053497 
	C257.440674,370.031403 256.750671,368.887970 256.044861,368.263550 
	C256.742004,367.796844 257.423737,366.956207 258.138885,366.926727 
	C261.630981,366.782928 265.132080,366.869812 268.629578,366.833710 
	C269.065277,366.829224 269.498505,366.579376 270.244293,366.345581 
	C270.098907,364.887970 269.962616,363.521118 269.822601,362.117371 
	C265.866364,362.117371 262.363342,362.235901 258.877869,362.041138 
	C257.902802,361.986603 256.979401,361.008606 256.032318,360.454224 
	C256.991974,359.909698 257.935822,358.930267 258.913940,358.894775 
	C263.511047,358.728088 268.117584,358.820648 272.704590,358.820648 
	C272.704590,356.526337 272.704590,354.926727 272.704590,353.299011 
	C263.775604,353.299011 255.068085,353.299011 246.150833,353.299011 
	C246.150833,355.641754 246.150833,357.622345 246.150833,360.577698 
M168.115982,365.040344 
	C168.048080,368.486725 166.439163,370.272095 162.843765,370.132690 
	C158.999405,369.983582 158.251617,367.350525 158.158386,364.323883 
	C158.042892,360.574646 158.130737,356.819122 158.130737,353.241638 
	C154.498215,353.241638 151.570633,353.241638 148.188202,353.241638 
	C149.262405,360.792725 145.217377,369.616730 153.575134,374.444489 
	C159.836761,378.061432 167.489304,378.169647 173.604416,373.978271 
	C181.221619,368.757355 176.929932,360.321686 178.133331,353.317688 
	C174.444611,353.317688 171.395752,353.317688 168.153336,353.317688 
	C168.153336,357.162079 168.153336,360.645386 168.115982,365.040344 
M145.818329,375.998871 
	C146.113678,375.590668 146.755020,374.966034 146.654572,374.805420 
	C142.332855,367.897095 138.455246,360.598053 133.237045,354.436066 
	C131.780228,352.715790 124.602463,352.898193 123.045273,354.740387 
	C117.754066,360.999969 113.802658,368.392120 109.339577,375.351715 
	C109.516922,375.760895 109.694275,376.170044 109.871628,376.579224 
	C113.164871,375.865601 116.748421,375.726990 119.659828,374.257050 
	C122.004715,373.073212 134.118164,370.693390 135.392502,372.905273 
	C137.886292,377.233826 141.586258,375.681274 145.818329,375.998871 
M205.042328,352.948029 
	C196.743881,352.948029 188.445450,352.948029 180.002502,352.948029 
	C180.002502,355.032654 180.002502,356.779938 180.002502,358.968628 
	C183.045944,358.968628 185.808517,358.968628 188.875061,358.968628 
	C188.875061,364.861084 188.875061,370.312042 188.875061,375.830383 
	C192.144562,375.830383 195.099442,375.830383 198.431793,375.830383 
	C198.431793,370.220184 198.431793,364.782196 198.431793,359.021790 
	C201.531891,358.879272 204.275101,358.753143 208.152145,358.574921 
	C207.267303,356.333069 206.601181,354.645416 205.042328,352.948029 
M332.917236,375.221375 
	C332.917236,369.782318 332.917236,364.343262 332.917236,358.500671 
	C336.329926,358.500671 339.077179,358.500671 341.768372,358.500671 
	C341.768372,356.481384 341.768372,354.882507 341.768372,353.219604 
	C332.467865,353.219604 323.390961,353.219604 314.308777,353.219604 
	C314.308777,355.099976 314.308777,356.700348 314.308777,358.610352 
	C317.246216,358.738953 319.988708,358.858978 323.254333,359.001923 
	C323.254333,364.780304 323.254333,370.341064 323.254333,375.920563 
	C326.621796,375.920563 329.447723,375.920563 332.917236,375.221375 
M344.844971,354.111267 
	C344.844971,361.337341 344.844971,368.563385 344.844971,375.852753 
	C348.243713,375.852753 351.185089,375.852753 354.300354,375.852753 
	C354.300354,368.179291 354.300354,360.678314 354.300354,352.832245 
	C351.015564,352.983093 348.066589,353.118561 344.844971,354.111267 
M195.895493,405.995087 
	C195.895981,402.331970 196.109497,398.649994 195.787903,395.015381 
	C195.666092,393.638641 194.310425,392.371124 193.517181,391.053802 
	C192.654617,392.188019 191.376343,393.204620 191.015274,394.480713 
	C190.243027,397.210114 189.945267,400.073792 189.453171,402.882477 
	C187.964981,399.663696 187.587006,396.451782 186.886673,393.311707 
	C186.695282,392.453583 185.647079,391.455902 184.784256,391.185608 
	C184.126419,390.979523 182.420227,391.800751 182.408722,392.200256 
	C182.248550,397.769409 182.300201,403.344635 182.300201,408.918396 
	C182.952377,408.929688 183.604568,408.940979 184.256744,408.952271 
	C184.543289,406.220551 184.829834,403.488831 185.116379,400.757111 
	C185.918823,402.704224 186.019257,404.712219 186.635605,406.546875 
	C186.967087,407.533508 188.178101,408.861176 189.002365,408.868347 
	C189.841751,408.875610 191.119888,407.595123 191.448074,406.622711 
	C192.063797,404.798340 192.133163,402.789551 192.429764,400.857483 
	C193.294861,402.930450 193.189407,404.905731 193.356857,406.857666 
	C193.409500,407.471283 194.195007,408.022003 194.645096,408.601532 
	C195.057510,408.020355 195.469910,407.439178 195.895493,405.995087 
M159.935699,409.279877 
	C161.509293,407.451813 163.756271,405.820068 164.370743,403.712372 
	C164.675278,402.667816 162.093338,400.615051 160.582169,399.285797 
	C159.933929,398.715607 158.584076,399.022186 157.738052,398.578003 
	C156.648666,398.006042 155.368652,397.253052 154.904053,396.241302 
	C154.629700,395.643890 155.604935,393.767303 156.315475,393.577240 
	C157.596771,393.234497 159.349777,393.315796 160.445175,393.979858 
	C161.632568,394.699615 162.294083,396.286957 163.184921,397.495941 
	C164.429962,393.864258 163.134491,391.649567 159.759399,391.080566 
	C156.479843,390.527649 153.019501,390.810974 152.218903,394.828827 
	C151.411194,398.882263 154.432327,400.082611 157.747467,401.073120 
	C159.338486,401.548462 160.597412,403.135223 162.006729,404.218658 
	C161.219040,405.132568 160.291199,406.902588 159.669815,406.800842 
	C157.764557,406.488922 155.867813,405.639893 154.191086,404.629211 
	C153.393372,404.148346 153.101761,402.827881 151.912537,400.681427 
	C151.619904,407.514008 152.892334,408.746307 159.935699,409.279877 
M280.588623,409.032471 
	C282.875610,408.900909 285.162598,408.769348 287.449554,408.637787 
	C287.433899,408.151428 287.418213,407.665070 287.402557,407.178711 
	C284.721771,407.044769 282.040985,406.910858 279.353455,406.776581 
	C279.353455,404.712372 279.353455,403.023224 279.353455,401.390778 
	C282.144226,401.096954 284.514221,400.847443 286.884247,400.597900 
	C286.845581,400.188873 286.806885,399.779877 286.768188,399.370850 
	C284.219818,399.128235 281.671448,398.885620 278.866455,398.618591 
	C279.019928,396.649261 279.142822,395.072418 279.258636,393.586304 
	C282.223663,393.229034 284.741577,392.925659 287.259491,392.622253 
	C287.206726,392.219971 287.153992,391.817688 287.101257,391.415405 
	C283.725983,391.415405 280.350677,391.415405 276.413513,391.415405 
	C276.413513,396.598785 276.251007,401.569122 276.561432,406.509674 
	C276.618164,407.412476 278.601501,408.194183 280.588623,409.032471 
M303.752655,397.228943 
	C302.830780,391.308289 300.320129,390.094360 292.540253,391.700531 
	C292.540253,397.429260 292.540253,403.109863 292.540253,408.790466 
	C292.919952,408.795135 293.299652,408.799805 293.679352,408.804474 
	C293.896271,406.640991 294.113190,404.477509 294.325928,402.355774 
	C296.636810,402.355774 298.652039,402.355774 300.601868,402.355774 
	C300.923187,404.863098 301.183777,406.896790 301.444366,408.930511 
	C301.826447,408.875916 302.208527,408.821350 302.590576,408.766754 
	C302.906982,405.164490 303.223389,401.562195 303.752655,397.228943 
M268.746460,400.101776 
	C268.083099,402.306946 267.419739,404.512115 266.557068,407.379913 
	C264.691925,401.419159 263.043121,396.149780 261.394318,390.880402 
	C260.726593,391.096832 260.058868,391.313263 259.391144,391.529663 
	C260.959045,396.992188 262.400635,402.499054 264.279480,407.852448 
	C264.479492,408.422302 268.483612,408.519775 268.620361,408.118988 
	C270.483612,402.658447 271.975800,397.071320 273.559448,391.515411 
	C272.892914,391.300201 272.226410,391.084991 271.559875,390.869751 
	C270.687347,393.688629 269.814819,396.507477 268.746460,400.101776 
M176.188568,409.066345 
	C177.116821,408.804443 178.045059,408.542542 178.546143,408.401154 
	C177.147858,406.888458 174.981339,405.596069 175.046021,404.427216 
	C175.287735,400.059906 172.186447,394.437317 178.799820,391.734558 
	C175.234558,391.734558 171.669296,391.734558 169.054504,391.734558 
	C170.215149,394.050781 171.989883,395.986908 171.977692,397.911743 
	C171.954346,401.601196 174.500992,406.644684 167.556534,407.929199 
	C167.770157,408.309296 167.983795,408.689392 168.197418,409.069489 
	C170.561234,409.069489 172.925034,409.069489 176.188568,409.066345 
M199.023392,407.930969 
	C199.661697,407.878143 200.840698,407.892029 200.856689,407.762390 
	C201.074799,405.995056 201.131943,404.207855 201.224991,402.495117 
	C209.130066,401.096008 211.400742,399.424713 210.774643,395.626984 
	C210.100677,391.538940 206.209991,390.224548 198.928833,391.858673 
	C198.928833,396.847961 198.928833,401.938751 199.023392,407.930969 
M333.647400,399.624390 
	C331.083069,399.259399 328.518738,398.894409 326.026489,398.539703 
	C323.171417,389.961395 332.085938,395.171417 334.211914,391.445251 
	C330.291443,391.445251 326.948364,391.445251 323.585693,391.445251 
	C323.585693,397.402191 323.585693,403.133392 323.585693,408.864594 
	C324.043335,408.900696 324.500977,408.936829 324.958618,408.972931 
	C325.263733,406.549988 325.568848,404.127045 325.891541,401.564484 
	C328.534302,401.200348 331.102966,400.846436 333.647400,399.624390 
M232.681580,394.757843 
	C231.775192,393.515961 230.868820,392.274109 229.962448,391.032227 
	C229.666794,391.258148 229.371155,391.484070 229.075516,391.709991 
	C231.212967,397.446075 233.350433,403.182129 235.542252,409.064056 
	C237.740372,403.025360 239.839737,397.257965 241.939117,391.490540 
	C241.522919,391.284393 241.106720,391.078217 240.690521,390.872040 
	C239.001953,393.845642 237.313385,396.819244 235.393707,400.199829 
	C234.456940,398.335114 233.722839,396.873810 232.681580,394.757843 
M317.086212,406.996704 
	C316.081848,406.105103 314.315430,405.293915 314.211304,404.307312 
	C313.852142,400.904297 314.073059,397.440063 314.073059,394.222870 
	C315.957458,393.485352 317.297485,392.960846 318.637543,392.436371 
	C318.534454,392.214722 318.431396,391.993073 318.328308,391.771423 
	C314.728699,391.771423 311.129120,391.771423 307.529510,391.771423 
	C307.514709,392.078339 307.499878,392.385223 307.485046,392.692139 
	C308.940399,393.206390 310.395752,393.720673 311.735168,394.193970 
	C311.735168,398.517212 311.735168,402.472198 311.735168,406.369232 
	C310.152740,406.867615 308.764740,407.304749 307.376740,407.741913 
	C310.919830,408.905914 314.298157,408.918762 317.673920,408.832672 
	C317.759186,408.830505 317.816650,407.738739 317.086212,406.996704 
M337.424347,392.418915 
	C339.732849,397.853058 342.041321,403.287231 344.302216,408.609314 
	C345.153503,405.868774 345.916382,402.916718 346.993286,400.083984 
	C348.097076,397.180603 349.508179,394.394043 350.784790,391.556366 
	C350.309692,391.306702 349.834564,391.057007 349.359467,390.807343 
	C347.603943,393.688629 345.848450,396.569946 343.780365,399.964264 
	C342.355988,397.148468 341.462646,394.982880 340.190399,393.069183 
	C339.699158,392.330261 338.347931,392.163025 337.424347,392.418915 
z"/>
<path fill="#00BD62" opacity="1.000000" stroke="none" 
	d="
M246.108368,104.718086 
	C203.027466,107.976646 170.914093,138.397278 165.241714,180.973343 
	C164.913559,183.436432 164.984131,185.961685 164.983582,188.458023 
	C164.977371,216.451950 164.995758,244.445862 164.996323,272.439789 
	C164.996338,273.595367 164.885910,274.750946 164.807999,276.277710 
	C156.980652,276.277710 149.254669,276.277710 141.076675,276.277710 
	C140.987579,274.586639 140.830841,272.984375 140.829514,271.382019 
	C140.805725,242.888153 140.388550,214.386948 140.895981,185.902283 
	C141.534073,150.083878 157.852417,122.112923 186.169632,101.006363 
	C250.069901,53.377583 344.824249,90.751244 359.000977,169.124878 
	C360.326111,176.450516 360.974121,183.992508 361.019653,191.439651 
	C361.228516,225.597717 360.658630,259.766541 361.319824,293.913086 
	C361.609833,308.890778 350.166199,324.998322 330.785278,325.490417 
	C313.604523,325.926666 300.077942,311.789001 300.046661,293.601318 
	C299.987915,259.442078 300.143158,225.282120 299.982300,191.123520 
	C299.868591,166.972107 283.978973,147.649063 260.467194,142.508133 
	C231.545654,136.184341 202.154770,159.284653 202.001236,188.846252 
	C201.785767,230.336227 201.931763,271.828094 201.923233,313.319153 
	C201.922867,315.140747 201.923203,316.962341 201.923203,319.219116 
	C193.641647,319.219116 185.637817,319.219116 177.428497,319.219116 
	C177.325607,317.567963 177.173660,316.263916 177.173340,314.959778 
	C177.163467,273.468689 177.007919,231.976761 177.219971,190.486740 
	C177.399933,155.274887 200.766113,126.461914 235.073120,118.502350 
	C277.964844,108.551048 322.000946,140.360779 323.865204,184.146393 
	C325.366394,219.405624 324.550598,254.763474 324.763885,290.077576 
	C324.773956,291.743591 324.742310,293.412079 324.821747,295.075043 
	C324.994568,298.691986 327.365723,301.093781 330.502014,300.670929 
	C332.756042,300.367065 334.888550,297.828125 336.653839,295.900330 
	C337.344238,295.146393 336.937592,293.337769 336.937958,292.009430 
	C336.947449,258.683228 337.060516,225.356537 336.913300,192.031006 
	C336.745026,153.938629 314.950592,122.638275 279.491760,109.396317 
	C268.908997,105.444221 257.845459,104.246651 246.108368,104.718086 
z"/>
<path fill="#00BC61" opacity="1.000000" stroke="none" 
	d="
M214.052582,276.000000 
	C214.052979,247.514816 214.036865,219.529602 214.059189,191.544434 
	C214.075592,170.991257 229.345825,154.586563 249.015518,153.929886 
	C270.035797,153.228119 287.158813,168.134567 287.646088,189.284958 
	C288.348053,219.752197 287.847321,250.247177 287.838776,280.730316 
	C287.838654,281.186646 287.567047,281.642944 287.341339,282.353607 
	C279.441010,282.353607 271.544037,282.353607 263.118469,282.353607 
	C263.118469,280.264160 263.118561,278.477905 263.118469,276.691620 
	C263.117004,248.373276 263.162323,220.054825 263.088043,191.736664 
	C263.062744,182.101379 255.968048,176.443863 247.384720,178.944458 
	C242.476654,180.374329 239.244751,184.331833 238.893387,189.470688 
	C238.768616,191.295532 238.818161,193.133514 238.818024,194.965500 
	C238.814682,240.441437 238.815369,285.917358 238.815338,331.393311 
	C238.815338,333.352509 238.815353,335.311707 238.815353,337.561340 
	C230.388489,337.561340 222.502533,337.561340 214.052551,337.561340 
	C214.052551,317.043915 214.052551,296.771942 214.052582,276.000000 
z"/>
<path fill="#FBFBFB" opacity="1.000000" stroke="none" 
	d="
M296.616730,362.445862 
	C298.105591,364.173096 299.350891,365.624451 301.376678,367.985413 
	C301.376678,362.386444 301.376678,357.987213 301.376678,353.276489 
	C304.848175,353.276489 307.893219,353.276489 311.083679,353.276489 
	C311.083679,360.799011 311.083679,368.262238 311.083679,376.007721 
	C308.091339,376.007721 305.240723,376.257324 302.464264,375.911469 
	C300.871735,375.713104 299.013184,374.906525 297.943939,373.753082 
	C294.388458,369.917633 291.136047,365.801208 287.058624,360.949005 
	C287.058624,366.471375 287.058624,370.875732 287.058624,375.640198 
	C283.658661,375.640198 280.608673,375.640198 277.283020,375.640198 
	C277.283020,368.340973 277.283020,360.929688 277.283020,353.616425 
	C286.463348,350.190125 291.831909,355.267609 296.616730,362.445862 
z"/>
<path fill="#F9F9F9" opacity="1.000000" stroke="none" 
	d="
M373.941376,352.948486 
	C377.072449,353.141327 379.766296,353.072266 382.348633,353.575470 
	C389.659943,355.000092 392.071564,357.832703 392.083588,364.494873 
	C392.095520,371.109100 389.745453,374.451233 382.314117,375.246002 
	C374.806213,376.048950 367.145447,375.422943 359.281067,375.422943 
	C359.281067,368.345490 359.281067,360.955872 359.281067,352.947876 
	C363.962830,352.947876 368.708038,352.947876 373.941376,352.948486 
M374.243622,370.149536 
	C380.414459,369.657745 382.550537,367.868408 382.024353,363.632019 
	C381.491058,359.338684 377.840881,358.091553 369.136871,359.274323 
	C369.136871,362.819183 369.136871,366.370941 369.136871,370.163239 
	C370.716583,370.163239 372.019562,370.163239 374.243622,370.149536 
z"/>
<path fill="#F6F6F6" opacity="1.000000" stroke="none" 
	d="
M223.113678,366.851929 
	C221.759079,367.653809 220.308640,368.347504 220.135162,369.278992 
	C219.753448,371.328674 220.016693,373.498413 220.016693,375.814606 
	C216.699722,375.814606 213.757355,375.814606 210.486145,375.814606 
	C210.486145,368.442291 210.486145,361.046143 210.486145,353.293549 
	C213.422607,353.293549 216.466843,353.293549 219.867355,353.293549 
	C219.867355,355.972687 219.867355,358.737488 219.867355,361.808838 
	C223.925537,361.808838 227.659424,361.808838 231.932434,361.808838 
	C231.932434,359.092865 231.932434,356.214264 231.932434,353.144501 
	C235.398865,353.144501 238.340851,353.144501 241.600433,353.144501 
	C241.600433,360.526978 241.600433,367.928223 241.600433,375.674927 
	C238.679901,375.674927 235.629379,375.674927 232.205078,375.674927 
	C232.205078,372.987305 232.205078,370.235901 232.205078,366.851624 
	C229.109650,366.851624 226.353378,366.851624 223.113678,366.851929 
z"/>
<path fill="#F3F3F3" opacity="1.000000" stroke="none" 
	d="
M246.150833,360.090332 
	C246.150833,357.622345 246.150833,355.641754 246.150833,353.299011 
	C255.068085,353.299011 263.775604,353.299011 272.704590,353.299011 
	C272.704590,354.926727 272.704590,356.526337 272.704590,358.820648 
	C268.117584,358.820648 263.511047,358.728088 258.913940,358.894775 
	C257.935822,358.930267 256.991974,359.909698 256.032318,360.454224 
	C256.979401,361.008606 257.902802,361.986603 258.877869,362.041138 
	C262.363342,362.235901 265.866364,362.117371 269.822601,362.117371 
	C269.962616,363.521118 270.098907,364.887970 270.244293,366.345581 
	C269.498505,366.579376 269.065277,366.829224 268.629578,366.833710 
	C265.132080,366.869812 261.630981,366.782928 258.138885,366.926727 
	C257.423737,366.956207 256.742004,367.796844 256.044861,368.263550 
	C256.750671,368.887970 257.440674,370.031403 258.164886,370.053497 
	C263.292847,370.210083 268.427765,370.136810 273.821533,370.136810 
	C273.821533,372.219055 273.821533,373.934143 273.821533,375.840820 
	C264.743134,375.840820 255.788269,375.840820 246.150833,375.840820 
	C246.150833,370.766998 246.150833,365.672363 246.150833,360.090332 
z"/>
<path fill="#F6F6F6" opacity="1.000000" stroke="none" 
	d="
M168.134659,364.584503 
	C168.153336,360.645386 168.153336,357.162079 168.153336,353.317688 
	C171.395752,353.317688 174.444611,353.317688 178.133331,353.317688 
	C176.929932,360.321686 181.221619,368.757355 173.604416,373.978271 
	C167.489304,378.169647 159.836761,378.061432 153.575134,374.444489 
	C145.217377,369.616730 149.262405,360.792725 148.188202,353.241638 
	C151.570633,353.241638 154.498215,353.241638 158.130737,353.241638 
	C158.130737,356.819122 158.042892,360.574646 158.158386,364.323883 
	C158.251617,367.350525 158.999405,369.983582 162.843765,370.132690 
	C166.439163,370.272095 168.048080,368.486725 168.134659,364.584503 
z"/>
<path fill="#F9F9F9" opacity="1.000000" stroke="none" 
	d="
M145.396667,376.004639 
	C141.586258,375.681274 137.886292,377.233826 135.392502,372.905273 
	C134.118164,370.693390 122.004715,373.073212 119.659828,374.257050 
	C116.748421,375.726990 113.164871,375.865601 109.871628,376.579224 
	C109.694275,376.170044 109.516922,375.760895 109.339577,375.351715 
	C113.802658,368.392120 117.754066,360.999969 123.045273,354.740387 
	C124.602463,352.898193 131.780228,352.715790 133.237045,354.436066 
	C138.455246,360.598053 142.332855,367.897095 146.654572,374.805420 
	C146.755020,374.966034 146.113678,375.590668 145.396667,376.004639 
M130.630478,366.597778 
	C130.119110,364.443176 129.607742,362.288544 129.096375,360.133942 
	C128.660492,360.149963 128.224609,360.165985 127.788727,360.182007 
	C126.734558,362.072906 125.680397,363.963776 124.200859,366.617645 
	C126.708496,366.617645 128.288422,366.617645 130.630478,366.597778 
z"/>
<path fill="#F9F9F9" opacity="1.000000" stroke="none" 
	d="
M205.488708,352.952881 
	C206.601181,354.645416 207.267303,356.333069 208.152145,358.574921 
	C204.275101,358.753143 201.531891,358.879272 198.431793,359.021790 
	C198.431793,364.782196 198.431793,370.220184 198.431793,375.830383 
	C195.099442,375.830383 192.144562,375.830383 188.875061,375.830383 
	C188.875061,370.312042 188.875061,364.861084 188.875061,358.968628 
	C185.808517,358.968628 183.045944,358.968628 180.002502,358.968628 
	C180.002502,356.779938 180.002502,355.032654 180.002502,352.948029 
	C188.445450,352.948029 196.743881,352.948029 205.488708,352.952881 
z"/>
<path fill="#F6F6F6" opacity="1.000000" stroke="none" 
	d="
M332.595428,375.570984 
	C329.447723,375.920563 326.621796,375.920563 323.254333,375.920563 
	C323.254333,370.341064 323.254333,364.780304 323.254333,359.001923 
	C319.988708,358.858978 317.246216,358.738953 314.308777,358.610352 
	C314.308777,356.700348 314.308777,355.099976 314.308777,353.219604 
	C323.390961,353.219604 332.467865,353.219604 341.768372,353.219604 
	C341.768372,354.882507 341.768372,356.481384 341.768372,358.500671 
	C339.077179,358.500671 336.329926,358.500671 332.917236,358.500671 
	C332.917236,364.343262 332.917236,369.782318 332.595428,375.570984 
z"/>
<path fill="#F3F3F3" opacity="1.000000" stroke="none" 
	d="
M344.981323,353.682617 
	C348.066589,353.118561 351.015564,352.983093 354.300354,352.832245 
	C354.300354,360.678314 354.300354,368.179291 354.300354,375.852753 
	C351.185089,375.852753 348.243713,375.852753 344.844971,375.852753 
	C344.844971,368.563385 344.844971,361.337341 344.981323,353.682617 
z"/>
<path fill="#00984F" opacity="1.000000" stroke="none" 
	d="
M195.888916,406.426544 
	C195.469910,407.439178 195.057510,408.020355 194.645081,408.601532 
	C194.195007,408.022003 193.409500,407.471283 193.356857,406.857666 
	C193.189407,404.905731 193.294861,402.930450 192.429764,400.857483 
	C192.133163,402.789551 192.063797,404.798340 191.448074,406.622711 
	C191.119888,407.595123 189.841751,408.875610 189.002365,408.868347 
	C188.178101,408.861176 186.967087,407.533508 186.635605,406.546875 
	C186.019257,404.712219 185.918823,402.704224 185.116379,400.757111 
	C184.829834,403.488831 184.543289,406.220551 184.256744,408.952271 
	C183.604568,408.940979 182.952377,408.929688 182.300201,408.918396 
	C182.300201,403.344635 182.248550,397.769409 182.408722,392.200256 
	C182.420227,391.800751 184.126419,390.979523 184.784256,391.185608 
	C185.647079,391.455902 186.695282,392.453583 186.886673,393.311707 
	C187.587006,396.451782 187.964981,399.663696 189.453171,402.882477 
	C189.945267,400.073792 190.243027,397.210114 191.015274,394.480713 
	C191.376343,393.204620 192.654617,392.188019 193.517181,391.053802 
	C194.310425,392.371124 195.666092,393.638641 195.787903,395.015381 
	C196.109497,398.649994 195.895981,402.331970 195.888916,406.426544 
z"/>
<path fill="#00A757" opacity="1.000000" stroke="none" 
	d="
M159.576599,409.363251 
	C152.892334,408.746307 151.619904,407.514008 151.912537,400.681427 
	C153.101761,402.827881 153.393372,404.148346 154.191086,404.629211 
	C155.867813,405.639893 157.764557,406.488922 159.669815,406.800842 
	C160.291199,406.902588 161.219040,405.132568 162.006744,404.218658 
	C160.597412,403.135223 159.338486,401.548462 157.747467,401.073120 
	C154.432327,400.082611 151.411194,398.882263 152.218903,394.828827 
	C153.019501,390.810974 156.479843,390.527649 159.759399,391.080566 
	C163.134491,391.649567 164.429962,393.864258 163.184921,397.495941 
	C162.294083,396.286957 161.632568,394.699615 160.445175,393.979858 
	C159.349777,393.315796 157.596771,393.234497 156.315475,393.577240 
	C155.604935,393.767303 154.629700,395.643890 154.904053,396.241302 
	C155.368652,397.253052 156.648666,398.006042 157.738052,398.578003 
	C158.584076,399.022186 159.933929,398.715607 160.582169,399.285797 
	C162.093338,400.615051 164.675278,402.667816 164.370743,403.712372 
	C163.756271,405.820068 161.509293,407.451813 159.576599,409.363251 
z"/>
<path fill="#00B05B" opacity="1.000000" stroke="none" 
	d="
M280.142059,409.032135 
	C278.601501,408.194183 276.618164,407.412476 276.561432,406.509674 
	C276.251007,401.569122 276.413513,396.598785 276.413513,391.415405 
	C280.350677,391.415405 283.725983,391.415405 287.101257,391.415405 
	C287.153992,391.817688 287.206726,392.219971 287.259491,392.622253 
	C284.741577,392.925659 282.223663,393.229034 279.258636,393.586304 
	C279.142822,395.072418 279.019928,396.649261 278.866455,398.618591 
	C281.671448,398.885620 284.219818,399.128235 286.768188,399.370850 
	C286.806885,399.779877 286.845581,400.188873 286.884247,400.597900 
	C284.514221,400.847443 282.144226,401.096954 279.353455,401.390778 
	C279.353455,403.023224 279.353455,404.712372 279.353455,406.776581 
	C282.040985,406.910858 284.721771,407.044769 287.402557,407.178711 
	C287.418213,407.665070 287.433899,408.151428 287.449554,408.637787 
	C285.162598,408.769348 282.875610,408.900909 280.142059,409.032135 
z"/>
<path fill="#00B15B" opacity="1.000000" stroke="none" 
	d="
M303.646210,397.594421 
	C303.223389,401.562195 302.906982,405.164490 302.590576,408.766754 
	C302.208527,408.821350 301.826447,408.875916 301.444366,408.930511 
	C301.183777,406.896790 300.923187,404.863098 300.601868,402.355774 
	C298.652039,402.355774 296.636810,402.355774 294.325928,402.355774 
	C294.113190,404.477509 293.896271,406.640991 293.679352,408.804474 
	C293.299652,408.799805 292.919952,408.795135 292.540253,408.790466 
	C292.540253,403.109863 292.540253,397.429260 292.540253,391.700531 
	C300.320129,390.094360 302.830780,391.308289 303.646210,397.594421 
M299.760468,399.302643 
	C300.084442,397.712769 301.080322,395.014435 300.612518,394.730896 
	C298.876801,393.678802 296.658966,393.422119 294.324280,392.785431 
	C294.324280,395.663116 294.324280,397.547974 294.324280,399.629883 
	C296.086914,399.629883 297.536682,399.629883 299.760468,399.302643 
z"/>
<path fill="#00A957" opacity="1.000000" stroke="none" 
	d="
M268.844391,399.714050 
	C269.814819,396.507477 270.687347,393.688629 271.559875,390.869751 
	C272.226410,391.084991 272.892914,391.300201 273.559448,391.515411 
	C271.975800,397.071320 270.483612,402.658447 268.620361,408.118988 
	C268.483612,408.519775 264.479492,408.422302 264.279480,407.852448 
	C262.400635,402.499054 260.959045,396.992188 259.391144,391.529663 
	C260.058868,391.313263 260.726593,391.096832 261.394318,390.880402 
	C263.043121,396.149780 264.691925,401.419159 266.557068,407.379913 
	C267.419739,404.512115 268.083099,402.306946 268.844391,399.714050 
z"/>
<path fill="#00A053" opacity="1.000000" stroke="none" 
	d="
M175.738708,409.067932 
	C172.925034,409.069489 170.561234,409.069489 168.197418,409.069489 
	C167.983795,408.689392 167.770157,408.309296 167.556534,407.929199 
	C174.500992,406.644684 171.954346,401.601196 171.977692,397.911743 
	C171.989883,395.986908 170.215149,394.050781 169.054504,391.734558 
	C171.669296,391.734558 175.234558,391.734558 178.799820,391.734558 
	C172.186447,394.437317 175.287735,400.059906 175.046021,404.427216 
	C174.981339,405.596069 177.147858,406.888458 178.546143,408.401154 
	C178.045059,408.542542 177.116821,408.804443 175.738708,409.067932 
z"/>
<path fill="#00AE5A" opacity="1.000000" stroke="none" 
	d="
M198.976105,407.480286 
	C198.928833,401.938751 198.928833,396.847961 198.928833,391.858673 
	C206.209991,390.224548 210.100677,391.538940 210.774643,395.626984 
	C211.400742,399.424713 209.130066,401.096008 201.224991,402.495117 
	C201.131943,404.207855 201.074799,405.995056 200.856689,407.762390 
	C200.840698,407.892029 199.661697,407.878143 198.976105,407.480286 
M204.269836,393.157440 
	C198.627594,393.134918 201.863373,397.012238 201.180191,399.168091 
	C201.484680,399.607971 201.789185,400.047852 202.093674,400.487732 
	C204.116287,399.441010 206.138901,398.394318 208.161499,397.347595 
	C207.142044,395.976105 206.122589,394.604614 204.269836,393.157440 
z"/>
<path fill="#00AE5A" opacity="1.000000" stroke="none" 
	d="
M333.659515,400.058472 
	C331.102966,400.846436 328.534302,401.200348 325.891541,401.564484 
	C325.568848,404.127045 325.263733,406.549988 324.958618,408.972931 
	C324.500977,408.936829 324.043335,408.900696 323.585693,408.864594 
	C323.585693,403.133392 323.585693,397.402191 323.585693,391.445251 
	C326.948364,391.445251 330.291443,391.445251 334.211914,391.445251 
	C332.085938,395.171417 323.171417,389.961395 326.026489,398.539703 
	C328.518738,398.894409 331.083069,399.259399 333.659515,400.058472 
z"/>
<path fill="#00A053" opacity="1.000000" stroke="none" 
	d="
M232.835144,395.085175 
	C233.722839,396.873810 234.456940,398.335114 235.393707,400.199829 
	C237.313385,396.819244 239.001953,393.845642 240.690521,390.872040 
	C241.106720,391.078217 241.522919,391.284393 241.939117,391.490540 
	C239.839737,397.257965 237.740372,403.025360 235.542252,409.064056 
	C233.350433,403.182129 231.212967,397.446075 229.075516,391.709991 
	C229.371155,391.484070 229.666794,391.258148 229.962448,391.032227 
	C230.868820,392.274109 231.775192,393.515961 232.835144,395.085175 
z"/>
<path fill="#00B15B" opacity="1.000000" stroke="none" 
	d="
M317.486633,407.075928 
	C317.816650,407.738739 317.759186,408.830505 317.673920,408.832672 
	C314.298157,408.918762 310.919830,408.905914 307.376740,407.741913 
	C308.764740,407.304749 310.152740,406.867615 311.735168,406.369232 
	C311.735168,402.472198 311.735168,398.517212 311.735168,394.193970 
	C310.395752,393.720673 308.940399,393.206390 307.485046,392.692139 
	C307.499878,392.385223 307.514709,392.078339 307.529510,391.771423 
	C311.129120,391.771423 314.728699,391.771423 318.328308,391.771423 
	C318.431396,391.993073 318.534454,392.214722 318.637543,392.436371 
	C317.297485,392.960846 315.957458,393.485352 314.073059,394.222870 
	C314.073059,397.440063 313.852142,400.904297 314.211304,404.307312 
	C314.315430,405.293915 316.081848,406.105103 317.486633,407.075928 
z"/>
<path fill="#00A757" opacity="1.000000" stroke="none" 
	d="
M337.406433,392.077148 
	C338.347931,392.163025 339.699158,392.330261 340.190399,393.069183 
	C341.462646,394.982880 342.355988,397.148468 343.780365,399.964264 
	C345.848450,396.569946 347.603943,393.688629 349.359467,390.807343 
	C349.834564,391.057007 350.309692,391.306702 350.784790,391.556366 
	C349.508179,394.394043 348.097076,397.180603 346.993286,400.083984 
	C345.916382,402.916718 345.153503,405.868774 344.302216,408.609314 
	C342.041321,403.287231 339.732849,397.853058 337.406433,392.077148 
z"/>
<path fill="#00BD62" opacity="1.000000" stroke="none" 
	d="
M216.589432,392.224396 
	C216.589432,396.875122 216.589432,401.525818 216.589432,406.613831 
	C219.837585,406.859680 222.724854,407.078217 225.612137,407.296753 
	C225.631256,407.624481 225.650375,407.952179 225.669510,408.279907 
	C222.057343,408.279907 218.445175,408.279907 214.613129,408.279907 
	C214.613129,403.165497 214.613129,397.886475 215.015198,392.252411 
	C215.807983,392.006378 216.198715,392.115387 216.589432,392.224396 
z"/>
<path fill="#006F3A" opacity="1.000000" stroke="none" 
	d="
M216.606308,391.946045 
	C216.198715,392.115387 215.807983,392.006378 215.124725,391.803528 
	C215.429184,391.695679 216.026184,391.681671 216.606308,391.946045 
z"/>
<path fill="#040404" opacity="1.000000" stroke="none" 
	d="
M373.783081,370.156372 
	C372.019562,370.163239 370.716583,370.163239 369.136871,370.163239 
	C369.136871,366.370941 369.136871,362.819183 369.136871,359.274323 
	C377.840881,358.091553 381.491058,359.338684 382.024353,363.632019 
	C382.550537,367.868408 380.414459,369.657745 373.783081,370.156372 
z"/>
<path fill="#313131" opacity="1.000000" stroke="none" 
	d="
M130.249420,366.607727 
	C128.288422,366.617645 126.708496,366.617645 124.200859,366.617645 
	C125.680397,363.963776 126.734558,362.072906 127.788727,360.182007 
	C128.224609,360.165985 128.660492,360.149963 129.096375,360.133942 
	C129.607742,362.288544 130.119110,364.443176 130.249420,366.607727 
z"/>
<path fill="#001209" opacity="1.000000" stroke="none" 
	d="
M299.373474,399.466248 
	C297.536682,399.629883 296.086914,399.629883 294.324280,399.629883 
	C294.324280,397.547974 294.324280,395.663116 294.324280,392.785431 
	C296.658966,393.422119 298.876801,393.678802 300.612518,394.730896 
	C301.080322,395.014435 300.084442,397.712769 299.373474,399.466248 
z"/>
<path fill="#001209" opacity="1.000000" stroke="none" 
	d="
M204.686493,393.195282 
	C206.122589,394.604614 207.142044,395.976105 208.161499,397.347595 
	C206.138901,398.394318 204.116287,399.441010 202.093674,400.487732 
	C201.789185,400.047852 201.484680,399.607971 201.180191,399.168091 
	C201.863373,397.012238 198.627594,393.134918 204.686493,393.195282 
z"/>
</svg>